<svg width="40" height="40" viewBox="0 0 40 40" fill="none" xmlns="http://www.w3.org/2000/svg">
<path d="M9.75999 11.4C9.56958 11.2974 9.35579 11.2458 9.13951 11.2505C8.92323 11.2552 8.71187 11.316 8.52611 11.4268C8.34034 11.5377 8.18652 11.6949 8.0797 11.883C7.97287 12.0711 7.91669 12.2837 7.91666 12.5V28.3334C7.91666 28.6649 8.04835 28.9828 8.28277 29.2173C8.51719 29.4517 8.83514 29.5834 9.16666 29.5834C9.49818 29.5834 9.81612 29.4517 10.0505 29.2173C10.285 28.9828 10.4167 28.6649 10.4167 28.3334V14.5934L19.4067 19.4334C19.7767 19.6334 20.2233 19.6334 20.5933 19.4334L29.5833 14.5934V28.3334C29.5833 28.6649 29.715 28.9828 29.9494 29.2173C30.1839 29.4517 30.5018 29.5834 30.8333 29.5834C31.1648 29.5834 31.4828 29.4517 31.7172 29.2173C31.9516 28.9828 32.0833 28.6649 32.0833 28.3334V12.5C32.0833 12.2837 32.0271 12.0711 31.9203 11.883C31.8135 11.6949 31.6596 11.5377 31.4739 11.4268C31.2881 11.316 31.0767 11.2552 30.8605 11.2505C30.6442 11.2458 30.4304 11.2974 30.24 11.4L20 16.9134L9.75999 11.4Z" fill="black"/>
<path fill-rule="evenodd" clip-rule="evenodd" d="M28.85 6.20338C22.9618 5.67667 17.0383 5.67667 11.15 6.20338L8.62001 6.42838C7.30216 6.54605 6.06244 7.10451 5.10108 8.01356C4.13972 8.9226 3.51284 10.1292 3.32168 11.4384C2.49137 17.116 2.49137 22.8841 3.32168 28.5617C3.51325 29.8709 4.14053 31.0772 5.10219 31.986C6.06386 32.8947 7.30377 33.4528 8.62168 33.57L11.1483 33.7967C17.0383 34.3234 22.9617 34.3234 28.8517 33.7967L31.38 33.57C32.6976 33.4524 33.9371 32.8942 34.8985 31.9855C35.8598 31.0768 36.4868 29.8706 36.6783 28.5617C37.5087 22.8841 37.5087 17.116 36.6783 11.4384C36.4871 10.1289 35.86 8.92215 34.8983 8.01307C33.9366 7.104 32.6965 6.5457 31.3783 6.42838L28.85 6.20338ZM11.3733 8.69338C17.1141 8.17891 22.8893 8.17891 28.63 8.69338L31.1583 8.92004C31.9163 8.98736 32.6294 9.30822 33.1825 9.83079C33.7357 10.3534 34.0965 11.0471 34.2067 11.8C35.0019 17.2378 35.0019 22.7623 34.2067 28.2C34.0965 28.9529 33.7357 29.6467 33.1825 30.1693C32.6294 30.6919 31.9163 31.0127 31.1583 31.08L28.63 31.3067C22.89 31.82 17.1133 31.82 11.3733 31.3067L8.84501 31.08C8.08706 31.0127 7.37393 30.6919 6.82082 30.1693C6.2677 29.6467 5.9069 28.9529 5.79668 28.2C5.00143 22.7623 5.00143 17.2378 5.79668 11.8C5.9069 11.0471 6.2677 10.3534 6.82082 9.83079C7.37393 9.30822 8.08706 8.98736 8.84501 8.92004L11.3733 8.69338Z" fill="black"/>
</svg>
