<svg width="40" height="40" viewBox="0 0 40 40" fill="none" xmlns="http://www.w3.org/2000/svg">
<path d="M30.7333 5.1001H9.26664C8.16252 5.10318 7.1045 5.54315 6.32376 6.32389C5.54303 7.10462 5.10305 8.16264 5.09998 9.26676V30.7334C5.10305 31.8376 5.54303 32.8956 6.32376 33.6763C7.1045 34.457 8.16252 34.897 9.26664 34.9001H30.7333C31.8384 34.9001 32.8982 34.4611 33.6796 33.6797C34.461 32.8983 34.9 31.8385 34.9 30.7334V9.26676C34.9 8.1617 34.461 7.10189 33.6796 6.32049C32.8982 5.53908 31.8384 5.1001 30.7333 5.1001ZM33.2333 30.7334C33.2289 31.3951 32.9641 32.0285 32.4962 32.4964C32.0284 32.9643 31.395 33.2291 30.7333 33.2334H9.26664C8.60495 33.2291 7.9716 32.9643 7.5037 32.4964C7.0358 32.0285 6.77101 31.3951 6.76664 30.7334V9.26676C6.77101 8.60507 7.0358 7.97172 7.5037 7.50382C7.9716 7.03593 8.60495 6.77113 9.26664 6.76676H30.7333C31.395 6.77113 32.0284 7.03593 32.4962 7.50382C32.9641 7.97172 33.2289 8.60507 33.2333 9.26676V30.7334Z" fill="black"/>
<path d="M10.6266 17.9132C10.6266 17.4712 10.8022 17.0473 11.1148 16.7347C11.4274 16.4222 11.8513 16.2466 12.2933 16.2466C12.7353 16.2466 13.1593 16.4222 13.4718 16.7347C13.7844 17.0473 13.96 17.4712 13.96 17.9132V28.7466C13.96 29.1886 13.7844 29.6125 13.4718 29.9251C13.1593 30.2377 12.7353 30.4132 12.2933 30.4132C11.8513 30.4132 11.4274 30.2377 11.1148 29.9251C10.8022 29.6125 10.6266 29.1886 10.6266 28.7466V17.9132Z" fill="black"/>
<path d="M12.2933 12.9066C13.2138 12.9066 13.96 12.1604 13.96 11.2399C13.96 10.3194 13.2138 9.57324 12.2933 9.57324C11.3728 9.57324 10.6266 10.3194 10.6266 11.2399C10.6266 12.1604 11.3728 12.9066 12.2933 12.9066Z" fill="black"/>
<path d="M29.3667 22.2834V28.7501C29.3667 29.1921 29.1911 29.6161 28.8785 29.9286C28.5659 30.2412 28.142 30.4168 27.7 30.4168C27.258 30.4168 26.834 30.2412 26.5215 29.9286C26.2089 29.6161 26.0333 29.1921 26.0333 28.7501V22.2834C26.0333 21.5696 25.7497 20.8849 25.2449 20.3801C24.7402 19.8754 24.0555 19.5918 23.3417 19.5918C22.6278 19.5918 21.9431 19.8754 21.4384 20.3801C20.9336 20.8849 20.65 21.5696 20.65 22.2834V28.7501C20.65 29.1921 20.4744 29.6161 20.1618 29.9286C19.8493 30.2412 19.4253 30.4168 18.9833 30.4168C18.5413 30.4168 18.1174 30.2412 17.8048 29.9286C17.4922 29.6161 17.3167 29.1921 17.3167 28.7501V17.9168C17.3235 17.4769 17.5013 17.0569 17.8124 16.7459C18.1235 16.4348 18.5434 16.257 18.9833 16.2501C19.2656 16.2424 19.5447 16.3111 19.7912 16.449C20.0376 16.5869 20.2422 16.7888 20.3833 17.0334C21.2998 16.514 22.3365 16.2443 23.3899 16.2513C24.4433 16.2583 25.4763 16.5417 26.3858 17.0732C27.2953 17.6047 28.0493 18.3657 28.5724 19.28C29.0955 20.1944 29.3694 21.23 29.3667 22.2834Z" fill="black"/>
</svg>
